<svg width="1220" height="966" viewBox="0 0 1220 966" fill="none" xmlns="http://www.w3.org/2000/svg">
    <path d="M1817.5 526.027C1674.69 330.383 1373.62 327.659 1206.4 427.755C1013.71 543.13 1045.35 767.202 865.441 797.366C701.294 824.953 591.019 652.327 475.605 681.723C369.541 708.743 287.012 899.252 355.266 1567"
          stroke="white" stroke-opacity="0.04" stroke-width="2" stroke-miterlimit="10"/>
    <path d="M380.179 1583.95C313.46 925.541 393.682 730.846 498.297 698.327C575.904 674.348 652.02 745.142 744.521 781.426C791.297 800.588 838.9 806.957 883.056 799.962C1027.76 777.17 1040.11 635.58 1141.65 519.272C1167.46 489.499 1197.04 464.205 1229.79 443.91C1395.77 340.07 1684.15 326.605 1826.04 512.652"
          stroke="white" stroke-opacity="0.04" stroke-width="2" stroke-miterlimit="10"/>
    <path d="M405.079 1600.81C339.916 951.772 417.769 752.974 520.764 715.104C596.477 687.275 671.795 753.059 762.432 785.861C809.13 803.407 856.318 809.17 900.396 802.711C1043.83 781.66 1061.93 650.091 1165.07 535.544C1191.23 506.346 1220.68 481.109 1252.95 460.238C1418.1 353.321 1693.36 322.963 1834.33 499.412"
          stroke="white" stroke-opacity="0.04" stroke-width="2" stroke-miterlimit="10"/>
    <path d="M429.907 1617.62C366.306 978.097 441.894 775.184 543.316 731.792C617.233 700.153 691.599 760.92 780.476 790.226C827.027 806.172 873.782 811.357 917.761 805.454C1060.03 786.081 1083.61 664.64 1188.52 551.811C1214.99 523.084 1244.33 497.845 1276.16 476.404C1440.23 366.031 1702.58 319.176 1842.64 486.028"
          stroke="white" stroke-opacity="0.04" stroke-width="2" stroke-miterlimit="10"/>
    <path d="M454.839 1634.61C392.732 1004.35 465.986 797.456 565.917 748.494C637.977 713.129 711.53 768.798 798.556 794.519C844.989 808.867 891.386 813.468 935.319 808.08C1076.43 790.385 1105.59 679.061 1212.3 567.882C1239.08 539.763 1268.25 514.61 1299.56 492.645C1462.58 378.799 1712.05 315.483 1851.22 472.723"
          stroke="white" stroke-opacity="0.04" stroke-width="2" stroke-miterlimit="10"/>
    <path d="M479.625 1651.59C419.135 1030.62 488.149 816.19 588.503 765.161C660.077 728.636 731.32 776.426 816.606 798.88C862.875 811.585 908.913 815.599 952.8 810.754C1092.75 794.737 1127.44 693.561 1235.77 584.18C1262.82 556.561 1291.86 531.43 1322.7 508.942C1484.59 391.48 1721.24 311.811 1859.52 459.489"
          stroke="white" stroke-opacity="0.04" stroke-width="2" stroke-miterlimit="10"/>
    <path d="M504.653 1668.43C445.581 1056.9 514.319 842.252 610.952 781.662C679.463 739.324 751.284 784.236 834.7 803.259C880.766 814.329 926.455 817.768 970.296 813.463C1109.09 799.124 1149.37 708.013 1259.35 600.413C1286.71 573.336 1315.62 548.247 1345.99 525.246C1506.83 404.311 1730.52 308.037 1867.94 446.226"
          stroke="white" stroke-opacity="0.04" stroke-width="2" stroke-miterlimit="10"/>
    <path d="M529.548 1685.35C471.928 1083.2 538.345 864.471 633.661 798.548C700.176 752.371 771.12 791.695 852.756 807.571C898.579 816.993 943.928 819.836 987.713 816.032C1125.34 803.422 1171.25 722.449 1282.85 616.505C1308.84 591.9 1337.04 566.406 1369.18 541.374C1528.93 416.843 1739.86 304.376 1876.32 432.896"
          stroke="white" stroke-opacity="0.04" stroke-width="2" stroke-miterlimit="10"/>
    <path d="M554.439 1702.26C498.43 1109.46 562.597 887.084 656.172 815.159C720.907 765.452 791.001 799.172 870.843 811.813C916.416 819.571 961.47 821.854 1005.25 818.623C1141.71 807.691 1193.14 736.778 1306.49 632.657C1332.87 608.404 1361.03 583.03 1392.54 557.545C1550.98 429.596 1749.18 300.676 1884.7 419.563"
          stroke="white" stroke-opacity="0.04" stroke-width="2" stroke-miterlimit="10"/>
    <path d="M579.34 1719.13C524.86 1135.71 586.81 909.626 678.819 831.935C741.766 778.749 811.066 806.641 888.858 816.242C934.132 822.346 978.892 824.083 1022.66 821.434C1157.99 812.164 1215 751.368 1329.93 648.832C1356.56 625.011 1384.74 599.621 1415.64 573.719C1573.09 441.934 1758.37 296.761 1893.01 406.087"
          stroke="white" stroke-opacity="0.04" stroke-width="2" stroke-miterlimit="10"/>
    <path d="M604.231 1736.04C551.258 1161.98 611.062 932.236 701.318 848.647C762.497 792.018 830.85 814.075 906.898 820.652C951.836 825.052 996.318 826.216 1040.08 824.137C1174.22 816.561 1236.8 765.846 1353.54 665.239C1380.6 641.842 1408.68 616.464 1438.96 590.197C1595.21 454.688 1767.71 293.286 1901.48 392.983"
          stroke="white" stroke-opacity="0.04" stroke-width="2" stroke-miterlimit="10"/>
    <path d="M629.12 1752.96C577.702 1188.27 635.366 954.816 723.951 865.281C783.411 805.23 850.804 821.363 924.996 824.981C967.635 827.044 1011.12 828.859 1057.61 826.78C1190.57 820.845 1258.75 780.283 1377.15 681.405C1404.56 658.429 1432.57 633.046 1462.32 606.367C1617.37 467.133 1777.11 289.486 1909.97 379.638"
          stroke="white" stroke-opacity="0.04" stroke-width="2" stroke-miterlimit="10"/>
    <path d="M654.017 1769.88C604.217 1214.66 659.527 977.58 746.53 881.999C804.251 818.49 870.725 828.579 943.075 829.325C985.772 829.772 1029.01 830.962 1075.09 829.453C1206.96 825.305 1280.61 794.731 1400.71 697.603C1428.5 675.083 1456.45 649.68 1485.52 622.632C1639.3 479.617 1786.36 285.781 1918.32 366.371"
          stroke="white" stroke-opacity="0.04" stroke-width="2" stroke-miterlimit="10"/>
    <path d="M678.85 1786.82C630.551 1240.82 684.004 1000.2 769.102 898.716C825.145 831.857 890.617 835.758 961.167 833.704C1003.91 832.446 1046.89 833.065 1092.48 832.226C1223.14 829.631 1302.39 809.314 1424.31 713.871C1452.46 691.72 1480.31 666.329 1508.8 638.935C1661.31 492.052 1795.65 282.043 1926.72 353.072"
          stroke="white" stroke-opacity="0.04" stroke-width="2" stroke-miterlimit="10"/>
    <path d="M703.807 1803.66C656.98 1267.07 708.335 1023.01 791.687 915.385C846.059 845.123 910.479 842.817 979.195 838.032C1021.96 835.032 1064.78 835.12 1110.05 834.803C1239.5 833.918 1324.36 823.649 1447.85 730.036C1477.37 707.027 1505.46 681.986 1532 655.011C1683.28 504.472 1805.08 278.333 1935.1 339.741"
          stroke="white" stroke-opacity="0.04" stroke-width="2" stroke-miterlimit="10"/>
    <path d="M728.698 1820.57C683.427 1293.36 732.821 1045.59 814.158 932.114C866.88 858.486 930.236 849.884 997.296 842.359C1040.06 837.583 1082.67 837.171 1127.52 837.475C1255.84 838.252 1346.26 838.117 1471.36 746.265C1501.16 723.817 1529.19 698.804 1555.26 671.383C1705.12 516.671 1814.29 274.643 1943.45 326.283"
          stroke="white" stroke-opacity="0.04" stroke-width="2" stroke-miterlimit="10"/>
    <path d="M753.587 1837.49C709.824 1319.63 757.45 1068.41 836.819 948.735C887.878 871.844 950.114 856.787 1015.32 846.686C1058.07 840.097 1100.52 839.293 1144.97 840.167C1272.1 842.638 1368.11 852.567 1494.97 762.433C1525.03 740.5 1552.98 715.476 1578.56 687.586C1727.07 529.141 1823.61 270.945 1951.93 313.131"
          stroke="white" stroke-opacity="0.04" stroke-width="2" stroke-miterlimit="10"/>
    <path d="M778.51 1854.39C736.358 1346.06 781.803 1091.25 859.397 965.451C908.889 885.146 969.873 863.662 1033.37 851.044C1076.17 842.507 1118.38 841.359 1162.45 842.839C1288.38 846.916 1389.98 867.05 1518.55 778.665C1548.86 757.226 1576.73 732.188 1601.83 703.853C1748.95 541.464 1832.9 267.206 1960.34 299.831"
          stroke="white" stroke-opacity="0.04" stroke-width="2" stroke-miterlimit="10"/>
    <path d="M803.404 1871.31C762.566 1372.25 806.361 1114.08 882.064 982.263C929.975 898.648 989.666 870.664 1051.57 855.606C1094.29 845.34 1136.45 843.649 1180.05 845.731C1304.86 851.557 1412.01 881.736 1542.19 795.008C1572.74 774.065 1600.55 749.009 1625.17 720.231C1770.86 553.862 1842.49 263.644 1968.82 286.679"
          stroke="white" stroke-opacity="0.04" stroke-width="2" stroke-miterlimit="10"/>
    <path d="M828.293 1888.23C789.12 1398.47 830.941 1136.88 904.553 998.839C950.917 911.846 1009.25 877.306 1069.52 859.736C1112.05 847.369 1154.17 845.554 1197.44 848.262C1321.06 855.783 1433.77 896.042 1565.71 811.136C1596.51 790.707 1624.25 765.627 1648.37 736.394C1792.56 565.952 1851.52 259.772 1977.14 273.239"
          stroke="white" stroke-opacity="0.04" stroke-width="2" stroke-miterlimit="10"/>
    <path d="M853.194 1905.09C815.55 1424.72 855.632 1159.87 927.027 1015.57C971.859 925.285 1028.76 884.133 1087.46 864.16C1129.82 849.728 1171.93 847.686 1214.72 850.907C1337.23 860.125 1455.53 910.502 1589.12 827.325C1620.15 807.371 1647.84 782.261 1671.5 752.602C1813.88 577.879 1860.73 256.135 1985.47 259.937"
          stroke="white" stroke-opacity="0.04" stroke-width="2" stroke-miterlimit="10"/>
    <path d="M878.058 1922.02C819.409 1157.6 956.577 926.669 1105.64 868.44C1268.36 804.871 1430.19 953.347 1612.81 843.495C1827.02 714.59 1849.15 253.316 1993.93 246.607"
          stroke="white" stroke-opacity="0.04" stroke-width="2" stroke-miterlimit="10"/>
</svg>
