<svg width="1356" height="716" viewBox="0 0 1356 716" fill="none" xmlns="http://www.w3.org/2000/svg">
    <path d="M-502.783 104.414C-387.449 317.41 -89.4503 360.402 89.6613 283.587C296.056 195.037 294.689 -31.2535 477.022 -37.0675C643.384 -42.4381 729.564 143.393 847.873 129.708C956.6 117.125 1063.88 -60.6243 1085.61 -731.497"
          stroke="white" stroke-opacity="0.04" stroke-width="2" stroke-miterlimit="10"/>
    <path d="M1063.19 -751.633C1041.19 -90.2171 935.634 91.9904 827.607 110.216C747.49 123.593 681.533 43.2493 594.72 -5.08807C550.929 -30.3381 504.607 -43.021 459.913 -41.9982C313.46 -38.7773 282.275 99.8872 166.08 201.559C136.519 227.61 103.816 248.717 68.6463 264.446C-109.733 345.139 -397.326 319.888 -513.037 116.526"
          stroke="white" stroke-opacity="0.04" stroke-width="2" stroke-miterlimit="10"/>
    <path d="M1040.77 -771.672C1018.49 -119.752 914.727 66.8388 807.59 90.5835C728.833 108.029 662.998 32.757 577.566 -11.8795C533.636 -35.518 487.644 -47.5444 443.098 -47.0421C298.137 -45.3769 262.596 82.5869 145.047 182.298C115.213 207.733 82.6504 228.802 47.8804 245.166C-130.097 329.018 -406.937 322.265 -523.026 128.537"
          stroke="white" stroke-opacity="0.04" stroke-width="2" stroke-miterlimit="10"/>
    <path d="M1018.42 -791.657C995.855 -149.371 893.79 41.6 787.474 71.0278C709.986 92.4898 644.422 22.3169 560.267 -18.621C516.269 -40.6526 470.629 -52.0492 426.255 -52.0842C282.67 -51.9264 243.053 65.2666 123.987 163.04C93.9062 187.966 61.4594 209.052 27.0462 226.04C-150.325 313.462 -416.588 324.784 -533.054 140.688"
          stroke="white" stroke-opacity="0.04" stroke-width="2" stroke-miterlimit="10"/>
    <path d="M995.98 -811.83C973.178 -178.924 872.894 16.3033 767.309 51.4503C691.164 76.8537 625.724 11.8408 542.923 -25.2952C498.828 -45.7288 453.464 -56.4975 409.205 -57.0373C266.994 -58.3869 223.198 48.033 102.571 143.931C72.2702 168.212 39.9941 189.235 6.0288 206.812C-170.767 297.816 -426.467 327.175 -543.34 152.725"
          stroke="white" stroke-opacity="0.04" stroke-width="2" stroke-miterlimit="10"/>
    <path d="M973.691 -831.974C950.53 -208.489 853.439 -5.22827 747.159 31.9109C671.341 58.528 607.135 1.6334 525.62 -32.0324C481.468 -50.8157 436.382 -60.9548 392.241 -62.0269C251.405 -64.8839 203.488 30.7387 81.4917 124.638C50.9858 148.388 18.8478 169.407 -14.7228 187.565C-190.879 282.304 -436.064 329.585 -553.33 164.729"
          stroke="white" stroke-opacity="0.04" stroke-width="2" stroke-miterlimit="10"/>
    <path d="M951.14 -852.008C927.838 -238.078 830.992 -34.5583 727.12 12.5536C653.558 45.3421 588.394 -8.77849 508.274 -38.794C464.105 -55.9296 419.286 -65.4516 375.264 -67.0531C235.803 -71.4175 183.692 13.4827 60.2963 105.396C29.564 128.568 -2.45083 149.561 -35.6219 168.291C-211.202 266.612 -445.761 332.083 -563.453 176.746"
          stroke="white" stroke-opacity="0.04" stroke-width="2" stroke-miterlimit="10"/>
    <path d="M928.733 -872.107C905.248 -267.67 810.154 -59.7934 706.874 -7.21923C634.777 29.6403 569.734 -18.825 490.957 -45.4835C446.807 -60.9536 402.247 -69.8403 358.347 -71.93C220.274 -77.8524 163.938 -3.75169 39.1612 86.3023C10.1079 107.207 -21.2482 128.698 -56.445 149.204C-231.431 251.235 -455.509 334.461 -573.546 188.834"
          stroke="white" stroke-opacity="0.04" stroke-width="2" stroke-miterlimit="10"/>
    <path d="M906.331 -892.203C882.499 -297.237 789.148 -85.4482 686.789 -26.6934C615.984 13.9032 551.033 -28.8947 473.601 -52.1071C429.476 -65.8954 385.134 -74.1874 341.314 -76.8446C204.616 -84.2743 144.161 -20.8819 17.8949 67.133C-11.4948 87.6371 -42.7943 109.015 -77.4287 130.053C-251.572 235.646 -465.236 336.881 -583.636 200.926"
          stroke="white" stroke-opacity="0.04" stroke-width="2" stroke-miterlimit="10"/>
    <path d="M883.911 -912.249C859.821 -326.79 768.17 -111.027 666.591 -46.3488C597.093 -2.06565 532.149 -38.982 456.341 -58.9075C412.291 -71.0159 368.166 -78.7274 324.436 -81.96C189.083 -90.885 124.449 -38.2657 -3.16754 47.9671C-32.7465 68.0098 -64.0754 89.3994 -98.1633 110.933C-271.825 220.461 -474.873 339.531 -593.666 213.17"
          stroke="white" stroke-opacity="0.04" stroke-width="2" stroke-miterlimit="10"/>
    <path d="M861.509 -932.343C837.177 -356.353 747.163 -136.68 646.533 -65.9221C578.326 -17.9909 513.539 -48.997 439.056 -65.6929C395.11 -76.0676 351.184 -83.1743 307.535 -86.9714C173.586 -97.416 104.788 -55.5313 -24.3654 28.547C-54.3123 48.1118 -85.5372 69.5036 -119.065 91.481C-292.04 204.86 -484.591 341.724 -603.82 225.021"
          stroke="white" stroke-opacity="0.04" stroke-width="2" stroke-miterlimit="10"/>
    <path d="M839.107 -952.438C814.488 -385.943 726.1 -162.31 626.329 -85.4361C559.367 -33.8832 494.739 -58.8902 421.699 -72.4048C379.719 -80.1562 336.866 -87.7739 290.517 -91.9357C157.959 -103.849 84.9652 -72.7761 -45.6009 9.36642C-75.8411 28.4676 -106.991 49.8737 -140.047 72.3312C-312.336 189.562 -494.419 344.232 -614.012 237.111"
          stroke="white" stroke-opacity="0.04" stroke-width="2" stroke-miterlimit="10"/>
    <path d="M816.698 -972.534C791.744 -415.649 705.202 -188.103 606.189 -105.026C540.489 -49.813 475.963 -68.7078 404.364 -79.1299C362.11 -85.2866 319.422 -92.253 273.55 -96.9253C142.319 -110.462 65.2382 -90.0197 -66.7859 -9.83949C-97.3352 8.75959 -128.44 30.1921 -160.861 53.1079C-332.403 174.254 -504.079 346.666 -624.065 249.14"
          stroke="white" stroke-opacity="0.04" stroke-width="2" stroke-miterlimit="10"/>
    <path d="M794.355 -992.651C769.147 -445.096 683.972 -213.797 586.057 -124.613C521.57 -65.8546 457.21 -78.4834 387.019 -85.89C344.495 -90.3631 301.984 -96.7287 256.692 -101.998C126.854 -116.914 45.6046 -107.385 -87.9953 -29.1189C-118.852 -10.9329 -149.853 10.5018 -181.759 33.8352C-352.55 158.986 -513.79 349.127 -634.169 261.196"
          stroke="white" stroke-opacity="0.04" stroke-width="2" stroke-miterlimit="10"/>
    <path d="M771.877 -1012.67C746.469 -474.651 662.913 -239.659 565.907 -144.155C502.621 -81.8012 438.471 -88.1376 369.733 -92.5913C326.952 -95.3424 284.529 -101.16 239.627 -106.904C111.222 -123.351 25.7502 -124.533 -109.161 -48.2889C-141.496 -29.4378 -172.681 -8.38081 -202.594 14.7993C-372.656 143.739 -523.625 351.542 -644.262 273.285"
          stroke="white" stroke-opacity="0.04" stroke-width="2" stroke-miterlimit="10"/>
    <path d="M749.472 -1032.77C723.777 -504.241 641.668 -265.306 545.876 -163.741C483.774 -97.8306 419.838 -97.7857 352.373 -99.3029C309.353 -100.293 267.075 -105.587 222.665 -111.892C95.6054 -129.835 5.98299 -141.801 -130.282 -67.5177C-162.826 -49.2609 -193.947 -28.2242 -223.451 -4.53805C-392.666 128.726 -533.25 353.965 -654.335 285.505"
          stroke="white" stroke-opacity="0.04" stroke-width="2" stroke-miterlimit="10"/>
    <path d="M727.072 -1052.87C701.134 -533.807 620.316 -291.223 525.644 -183.245C464.753 -113.879 401.063 -107.287 335.091 -106.003C291.847 -105.194 249.669 -110.079 205.736 -116.894C80.0808 -136.357 -13.735 -159.046 -151.517 -86.7004C-184.248 -68.9883 -215.293 -47.9301 -244.373 -23.7141C-412.753 113.429 -542.976 356.384 -664.501 297.403"
          stroke="white" stroke-opacity="0.04" stroke-width="2" stroke-miterlimit="10"/>
    <path d="M704.635 -1072.95C678.377 -563.549 599.24 -317.118 505.507 -202.832C445.713 -129.873 382.402 -116.743 317.788 -112.737C274.233 -110.004 232.242 -114.517 188.771 -121.881C64.5225 -142.774 -33.4752 -176.325 -172.715 -105.942C-205.619 -88.7522 -236.592 -67.6697 -265.26 -42.9488C-432.784 98.2908 -552.692 358.844 -674.61 309.458"
          stroke="white" stroke-opacity="0.04" stroke-width="2" stroke-miterlimit="10"/>
    <path d="M682.229 -1093.04C655.909 -593.009 577.956 -343.022 485.293 -222.526C426.622 -146.075 363.723 -126.331 300.36 -119.694C256.654 -115.237 214.646 -119.203 171.712 -127.102C48.8065 -149.58 -53.3393 -193.827 -193.961 -125.302C-227.037 -108.636 -257.942 -87.5265 -286.193 -62.3027C-452.845 83.0714 -562.665 361.093 -684.783 321.357"
          stroke="white" stroke-opacity="0.04" stroke-width="2" stroke-miterlimit="10"/>
    <path d="M659.829 -1113.14C633.103 -622.552 556.649 -368.913 465.226 -241.963C407.636 -161.957 345.209 -135.534 283.129 -126.188C239.325 -119.625 197.335 -123.464 154.818 -131.938C33.3163 -155.935 -72.9936 -210.917 -215.104 -144.432C-248.36 -128.309 -279.205 -107.167 -307.025 -81.4256C-472.729 68.1862 -572.132 363.721 -694.822 333.563"
          stroke="white" stroke-opacity="0.04" stroke-width="2" stroke-miterlimit="10"/>
    <path d="M637.409 -1133.19C610.425 -652.105 535.258 -394.995 445.193 -261.55C388.681 -178.078 326.788 -144.911 265.944 -132.974C222.026 -124.342 180.026 -127.953 138.048 -136.873C17.8761 -162.403 -92.6135 -228.158 -236.137 -163.609C-269.562 -147.988 -300.356 -126.808 -327.775 -100.584C-492.257 53.5131 -581.746 366.092 -704.856 345.63"
          stroke="white" stroke-opacity="0.04" stroke-width="2" stroke-miterlimit="10"/>
    <path d="M615.034 -1153.29C570.851 -387.901 404.01 -177.404 248.496 -139.649C78.7325 -98.428 -61.7683 -267.227 -257.45 -182.803C-486.984 -83.7268 -570.651 370.436 -715.021 357.709"
          stroke="white" stroke-opacity="0.04" stroke-width="2" stroke-miterlimit="10"/>
</svg>
