<svg width="158" height="407" viewBox="0 0 158 407" fill="none" xmlns="http://www.w3.org/2000/svg">
    <path d="M114.038 119.229C116.201 129.612 118.364 139.994 120.527 150.376C113.606 155.567 97.6001 161.19 81.5945 161.19C65.1563 161.19 46.9878 155.567 40.0664 150.376C42.6619 140.426 45.69 130.477 48.2855 120.095"
          stroke="white" stroke-width="3" stroke-miterlimit="10"/>
    <path d="M117.066 148.214C140.426 161.624 155.999 187.146 155.999 216.13V281.45L149.51 293.562H40.0664"
          stroke="white" stroke-width="3" stroke-miterlimit="10"/>
    <path d="M63.4277 102.793C65.1581 110.147 72.0794 115.771 80.2985 115.771C88.5176 115.771 95.0064 110.147 97.1693 102.793"
          stroke="white" stroke-width="3" stroke-miterlimit="10"/>
    <path d="M148.647 291.832V295.293C148.647 306.972 143.888 318.22 135.669 326.871H127.883" stroke="white"
          stroke-width="3" stroke-miterlimit="10"/>
    <path d="M117.933 242.95H9.35394L2.86517 219.158C2 216.562 2 213.967 2 211.804C3.29775 184.551 18.8708 161.191 40.9326 148.214"
          stroke="white" stroke-width="3" stroke-miterlimit="10"/>
    <path d="M124.42 220.022H129.611C139.561 220.022 150.375 237.326 150.375 237.326V242.949H117.932" stroke="white"
          stroke-width="3" stroke-miterlimit="10"/>
    <path d="M42.6624 302.646C43.095 298.753 43.095 294.427 42.6624 289.668C42.2298 284.91 41.3646 280.584 40.4995 276.691C38.3366 265.876 35.741 254.629 33.5781 243.814"
          stroke="white" stroke-width="3" stroke-miterlimit="10"/>
    <path d="M135.236 246.41L127.882 283.18C127.017 287.938 126.584 292.264 126.584 297.023" stroke="white"
          stroke-width="3" stroke-miterlimit="10"/>
    <path d="M120.096 150.809V241.651" stroke="white" stroke-width="3" stroke-miterlimit="10"/>
    <path d="M92.8431 189.741H7.19141" stroke="white" stroke-width="3" stroke-miterlimit="10"/>
    <path d="M125.287 291.832V380.944H112.31V404.736H79.8659V391.759C81.1637 390.029 82.4614 387.866 85.0569 385.703C88.085 383.107 90.6805 381.377 92.8434 380.512C92.4109 351.961 91.9783 323.411 91.9783 294.86H82.0288L73.3772 381.377H60.3996V405.169H11.5176L11.9502 397.383C14.1131 390.894 20.1693 387.866 27.0906 387.866H42.2311C42.2311 355.422 42.2311 322.545 42.2311 290.102"
          stroke="white" stroke-width="3" stroke-miterlimit="10"/>
    <path d="M28.8203 79.8652V53.9101C28.8203 25.3596 52.1799 2 80.7304 2C109.281 2 132.641 25.3596 132.641 53.9101V79.8652"
          stroke="white" stroke-width="3" stroke-miterlimit="10"/>
    <path d="M132.641 79.8652C132.641 108.416 109.281 131.775 80.7304 131.775C52.1799 131.775 28.8203 108.416 28.8203 79.8652"
          stroke="white" stroke-width="3" stroke-miterlimit="10"/>
    <path d="M27.0898 79.8649L110.579 11.5166" stroke="white" stroke-width="3" stroke-miterlimit="10"/>
    <path d="M36.6074 109.28L129.613 32.7129" stroke="white" stroke-width="3" stroke-miterlimit="10"/>
    <path d="M38.3359 27.0898H91.5438" stroke="white" stroke-width="3" stroke-miterlimit="10"/>
    <path d="M97.168 59.1016H132.64" stroke="white" stroke-width="3" stroke-miterlimit="10"/>
    <path d="M30.9844 59.1016H53.0462" stroke="white" stroke-width="3" stroke-miterlimit="10"/>
    <path d="M59.9668 88.9492H132.641" stroke="white" stroke-width="3" stroke-miterlimit="10"/>
    <path d="M35.3086 191.905V241.652" stroke="white" stroke-width="3" stroke-miterlimit="10"/>
    <path d="M65.1562 191.905V241.652" stroke="white" stroke-width="3" stroke-miterlimit="10"/>
    <path d="M91.5449 162.921V241.651" stroke="white" stroke-width="3" stroke-miterlimit="10"/>
    <path d="M36.6074 267.607H130.911" stroke="white" stroke-width="3" stroke-miterlimit="10"/>
    <path d="M122.258 174.602H146.05" stroke="white" stroke-width="3" stroke-miterlimit="10"/>
    <path d="M13.6797 174.602H91.9775" stroke="white" stroke-width="3" stroke-miterlimit="10"/>
    <path d="M122.258 202.286H154.702" stroke="white" stroke-width="3" stroke-miterlimit="10"/>
    <path d="M42.6641 322.545H79.4337" stroke="white" stroke-width="3" stroke-miterlimit="10"/>
    <path d="M42.6641 353.259H75.1079" stroke="white" stroke-width="3" stroke-miterlimit="10"/>
    <path d="M42.6641 380.512H75.1079" stroke="white" stroke-width="3" stroke-miterlimit="10"/>
    <path d="M89.8145 322.545H126.584" stroke="white" stroke-width="3" stroke-miterlimit="10"/>
    <path d="M89.8145 353.259H122.258" stroke="white" stroke-width="3" stroke-miterlimit="10"/>
    <path d="M89.8145 380.512H122.258" stroke="white" stroke-width="3" stroke-miterlimit="10"/>
</svg>
