<svg width="1660" height="464" viewBox="0 0 1660 464" fill="none" xmlns="http://www.w3.org/2000/svg">
    <path d="M1446.28 138.531C1369.21 -11.3749 1112.5 -34.087 946.541 26.0383C755.304 95.3457 730.815 257.938 570.094 267.124C423.442 275.554 368.884 144.369 263.473 157.454C166.598 169.483 52.2403 300.174 -42.9915 782.909"
          stroke="white" stroke-opacity="0.04" stroke-width="2" stroke-miterlimit="10"/>
    <path d="M-25.5957 796.766C68.801 320.82 182.15 186.973 279.05 170.907C350.9 159.093 399.68 215.022 470.402 247.376C505.977 264.32 545.202 272.162 584.553 270.2C713.483 263.862 756.6 163.351 870.145 87.0905C899.053 67.5561 930.157 51.4884 962.816 39.2183C1128.57 -23.6734 1378.17 -13.4256 1456.66 129.547"
          stroke="white" stroke-opacity="0.04" stroke-width="2" stroke-miterlimit="10"/>
    <path d="M-8.19152 810.553C85.3797 341.423 197.647 204.475 294.393 184.467C365.511 169.766 414.76 222.054 484.689 251.786C520.57 267.568 559.579 274.948 598.741 273.363C726.184 268.185 771.911 175.244 886.422 100.355C915.499 81.2564 946.476 65.2207 978.857 52.5046C1144.61 -12.6464 1386.87 -15.3975 1466.79 120.642"
          stroke="white" stroke-opacity="0.04" stroke-width="2" stroke-miterlimit="10"/>
    <path d="M9.16409 824.301C101.884 362.087 213.161 222.037 309.833 197.968C380.292 180.415 429.881 229.046 499.11 256.155C535.232 270.78 574.004 277.717 612.954 276.523C739.019 272.465 787.101 187.154 902.723 113.616C931.959 94.8763 962.837 78.8306 994.975 65.6768C1160.61 -2.0231 1395.63 -17.4739 1476.97 111.632"
          stroke="white" stroke-opacity="0.04" stroke-width="2" stroke-miterlimit="10"/>
    <path d="M26.5705 838.181C118.436 382.701 228.634 239.642 325.312 211.482C395.04 191.134 445.107 236.06 513.579 260.474C549.968 273.948 588.569 280.441 627.36 279.613C752.047 276.677 802.575 198.992 919.354 126.76C948.711 108.477 979.431 92.482 1011.24 78.9165C1176.77 8.65825 1404.58 -19.4651 1487.37 102.697"
          stroke="white" stroke-opacity="0.04" stroke-width="2" stroke-miterlimit="10"/>
    <path d="M43.851 852.044C134.963 403.325 243.27 254.58 340.784 224.969C410.364 203.758 460.268 242.883 528.004 264.839C564.631 277.125 603.059 283.173 641.687 282.731C764.996 280.916 817.916 210.878 935.67 140.044C965.146 122.138 995.745 106.149 1027.28 92.1773C1192.67 19.2519 1413.28 -21.4623 1497.5 93.7938"
          stroke="white" stroke-opacity="0.04" stroke-width="2" stroke-miterlimit="10"/>
    <path d="M61.3733 865.82C151.524 423.965 259.646 275.04 356.179 238.329C424.477 212.744 475.538 249.849 542.464 269.219C579.293 280.321 617.556 285.933 656.02 285.875C777.951 285.181 833.335 222.734 952.093 153.289C981.702 135.791 1012.19 119.825 1043.43 105.453C1208.73 29.9693 1422.07 -23.5262 1507.75 84.878"
          stroke="white" stroke-opacity="0.04" stroke-width="2" stroke-miterlimit="10"/>
    <path d="M78.7571 879.648C167.991 444.61 275.069 292.603 371.702 251.982C439.178 223.512 490.774 256.556 556.902 273.551C593.903 283.456 632.012 288.618 670.313 288.914C790.848 289.378 848.715 234.576 968.474 166.429C996.352 150.607 1026.32 134.301 1059.54 118.597C1224.74 40.4641 1430.89 -25.504 1517.98 75.9123"
          stroke="white" stroke-opacity="0.04" stroke-width="2" stroke-miterlimit="10"/>
    <path d="M96.1416 893.479C184.605 465.238 290.596 310.467 387.123 265.43C453.888 234.309 506.047 263.283 571.386 277.838C608.556 286.535 646.541 291.276 684.707 291.982C803.864 293.567 864.131 246.348 984.966 179.625C1013.09 164.082 1043 147.859 1075.79 131.788C1240.65 51.1176 1439.71 -27.5066 1528.21 66.949"
          stroke="white" stroke-opacity="0.04" stroke-width="2" stroke-miterlimit="10"/>
    <path d="M113.547 907.264C201.158 485.849 306.109 328.268 402.622 278.995C468.659 245.261 521.479 270.008 585.765 282.245C623.06 289.738 660.92 294.068 698.942 295.189C816.749 297.886 879.462 258.294 1001.28 192.815C1029.52 177.599 1059.45 161.366 1091.82 144.954C1256.7 61.469 1448.47 -29.6809 1538.41 57.8683"
          stroke="white" stroke-opacity="0.04" stroke-width="2" stroke-miterlimit="10"/>
    <path d="M130.932 921.094C217.681 506.476 321.637 346.131 418.009 292.515C483.326 256.194 536.68 276.698 600.17 286.651C637.57 292.9 675.324 296.801 713.21 298.33C829.612 302.157 894.762 270.166 1017.68 206.194C1046.19 191.31 1076.03 175.079 1107.96 158.363C1272.68 72.1292 1457.25 -31.5206 1548.67 49.0761"
          stroke="white" stroke-opacity="0.04" stroke-width="2" stroke-miterlimit="10"/>
    <path d="M148.323 934.921C234.246 527.12 337.225 363.973 433.537 305.985C498.172 267.096 552.067 283.293 614.651 290.999C650.623 295.417 687.377 299.714 727.593 301.432C842.607 306.353 910.213 282.016 1034.16 219.396C1062.87 204.838 1092.65 188.598 1124.21 171.551C1288.77 82.5678 1466.17 -33.5912 1558.99 40.1086"
          stroke="white" stroke-opacity="0.04" stroke-width="2" stroke-miterlimit="10"/>
    <path d="M165.709 948.747C250.834 547.844 352.637 381.934 448.987 319.51C512.931 278.025 567.43 289.832 629.101 295.355C665.494 298.619 702.178 302.453 741.916 304.551C855.581 310.674 925.567 293.866 1050.57 232.616C1079.5 218.41 1109.24 202.153 1140.3 184.793C1304.64 93.0167 1474.92 -35.6067 1569.18 31.1868"
          stroke="white" stroke-opacity="0.04" stroke-width="2" stroke-miterlimit="10"/>
    <path d="M183.037 962.595C267.327 568.389 368.355 399.822 464.435 333.037C527.716 289.038 582.781 296.346 643.557 299.741C680.38 301.788 716.976 305.195 756.137 307.738C868.423 314.891 940.829 305.811 1067 245.893C1096.15 231.976 1125.8 215.72 1156.45 198.074C1320.59 103.44 1483.72 -37.6382 1579.41 22.2489"
          stroke="white" stroke-opacity="0.04" stroke-width="2" stroke-miterlimit="10"/>
    <path d="M200.498 976.364C283.881 589.002 383.908 417.825 479.907 346.523C542.542 299.973 598.137 302.765 657.973 304.078C695.216 304.88 731.797 307.895 770.562 310.79C881.416 319.083 956.314 317.584 1083.4 259.084C1113.93 244.648 1143.69 228.659 1172.58 211.178C1336.51 113.841 1492.63 -39.6483 1589.65 13.2794"
          stroke="white" stroke-opacity="0.04" stroke-width="2" stroke-miterlimit="10"/>
    <path d="M217.885 990.192C300.442 609.647 399.647 435.675 495.267 360.052C557.266 310.978 613.399 309.19 672.45 308.427C710.104 307.957 746.616 310.6 784.886 313.911C894.389 323.316 971.706 329.454 1099.76 272.326C1130.4 258.311 1160.11 242.338 1188.7 224.505C1352.37 124.083 1501.36 -41.6517 1599.88 4.22289"
          stroke="white" stroke-opacity="0.04" stroke-width="2" stroke-miterlimit="10"/>
    <path d="M235.271 1004.02C316.965 630.273 415.452 453.714 510.818 373.513C572.145 321.989 628.804 315.501 686.864 312.766C724.918 310.998 761.39 313.35 799.182 317.041C907.28 327.577 987.061 341.306 1116.23 285.528C1146.97 271.9 1176.61 255.913 1204.89 237.711C1368.27 134.524 1510.17 -43.6576 1610.16 -4.6077"
          stroke="white" stroke-opacity="0.04" stroke-width="2" stroke-miterlimit="10"/>
    <path d="M252.685 1017.83C333.565 651.021 431.012 471.744 526.27 387.035C587.043 332.958 644.111 321.783 701.288 317.129C739.833 313.969 776.182 316.059 813.507 320.157C920.208 331.76 1002.43 353.18 1132.65 298.773C1163.49 285.515 1193.07 269.513 1221.04 250.959C1384.14 144.852 1518.98 -45.6946 1620.4 -13.5511"
          stroke="white" stroke-opacity="0.04" stroke-width="2" stroke-miterlimit="10"/>
    <path d="M270.073 1031.67C349.944 671.581 446.755 489.781 541.779 400.638C601.962 344.083 659.42 328.166 715.796 321.655C754.67 317.252 791.097 318.949 827.89 323.446C933.231 336.224 1017.88 365.218 1149.1 312.108C1180.03 299.222 1209.56 283.202 1237.22 264.298C1400.02 155.244 1527.99 -47.579 1630.68 -22.3761"
          stroke="white" stroke-opacity="0.04" stroke-width="2" stroke-miterlimit="10"/>
    <path d="M287.458 1045.49C366.613 692.184 462.522 507.8 557.191 414.053C616.829 354.973 674.63 334.268 730.188 325.847C769.387 319.927 805.812 321.532 842.174 326.455C946.11 340.363 1033.19 376.957 1165.49 325.272C1196.52 312.772 1225.99 296.73 1253.34 277.466C1415.79 165.393 1536.6 -49.7307 1640.88 -31.427"
          stroke="white" stroke-opacity="0.04" stroke-width="2" stroke-miterlimit="10"/>
    <path d="M304.862 1059.28C383.163 712.796 478.338 525.953 572.551 427.576C631.636 366.035 689.734 340.498 744.502 330.248C784.035 322.838 820.495 324.279 856.333 329.537C958.928 344.584 1048.46 388.806 1181.78 338.473C1212.89 326.329 1242.33 310.261 1269.38 290.661C1431.26 175.398 1545.31 -51.7027 1651.06 -40.3787"
          stroke="white" stroke-opacity="0.04" stroke-width="2" stroke-miterlimit="10"/>
    <path d="M322.217 1073.11C447.894 521.832 618.252 365.971 759.057 334.565C912.764 300.278 1016.94 417.73 1198.31 351.682C1411.05 274.173 1536.06 -54.5196 1661.35 -49.3387"
          stroke="white" stroke-opacity="0.04" stroke-width="2" stroke-miterlimit="10"/>
</svg>
