<svg width="1660" height="464" viewBox="0 0 1660 464" fill="none" xmlns="http://www.w3.org/2000/svg">
    <path d="M1410.95 486.836C1441.43 291.618 1269.34 116.387 1115.15 77.6693C937.463 33.0751 826.466 180.571 705.292 94.1946C594.699 15.4261 630.663 -147.753 547.137 -197.369C470.373 -242.961 312.883 -180.678 -32.907 243.85"
          stroke="white" stroke-opacity="0.04" stroke-width="2" stroke-miterlimit="10"/>
    <path d="M-28.3165 267.998C312.974 -150.26 471.548 -216.289 550.648 -174.703C609.243 -143.771 612.313 -59.0321 644.739 15.2519C660.667 53.2856 684.451 84.4171 713.955 105.851C810.568 176.171 899.359 101.622 1025.02 93.1059C1057.08 90.8191 1088.73 93.293 1119.33 100.477C1274.96 136.317 1449.07 294.892 1423.59 484.046"
          stroke="white" stroke-opacity="0.04" stroke-width="2" stroke-miterlimit="10"/>
    <path d="M-23.6808 292.087C313.101 -119.869 472.676 -189.631 553.927 -152.066C613.651 -124.446 619.15 -43.0577 652.51 28.1423C669.325 65.1994 693.219 95.7415 722.369 117.44C817.245 188.031 903.572 122.579 1029.14 116.004C1061.07 114.252 1092.61 116.682 1123.27 123.256C1280.2 156.847 1456.48 298.104 1436.01 481.195"
          stroke="white" stroke-opacity="0.04" stroke-width="2" stroke-miterlimit="10"/>
    <path d="M-19.0555 316.107C313.142 -89.4611 473.783 -162.903 557.313 -129.431C618.198 -105.044 626.042 -27.0988 660.403 41.0702C678.056 77.1181 702.034 107.078 730.806 129.04C824.044 199.929 907.691 143.48 1033.28 138.913C1065.12 137.613 1096.6 139.974 1127.33 145.967C1285.63 176.943 1463.98 301.243 1448.53 478.27"
          stroke="white" stroke-opacity="0.04" stroke-width="2" stroke-miterlimit="10"/>
    <path d="M-14.4737 340.288C313.242 -59.0761 474.832 -136.159 560.715 -106.76C622.678 -85.594 632.993 -11.0577 668.355 53.9752C686.861 89.0341 710.97 118.45 739.419 140.683C831.019 211.871 912.051 164.478 1037.73 161.898C1069.39 161.126 1100.73 163.444 1131.46 168.833C1291.16 197.2 1471.58 304.575 1461.15 475.545"
          stroke="white" stroke-opacity="0.04" stroke-width="2" stroke-miterlimit="10"/>
    <path d="M-9.97289 364.377C313.319 -28.6962 476.809 -112.57 564.127 -84.1197C626.479 -63.9029 640.007 4.75574 676.249 66.9011C695.609 100.918 719.849 129.788 747.957 152.307C837.921 223.793 916.288 185.443 1041.87 184.838C1073.4 184.512 1104.65 186.764 1135.4 191.581C1296.54 217.208 1478.99 307.757 1473.57 472.696"
          stroke="white" stroke-opacity="0.04" stroke-width="2" stroke-miterlimit="10"/>
    <path d="M-5.24644 388.525C313.412 1.72093 476.872 -82.4421 567.559 -61.6524C631.498 -46.5556 647.018 20.777 684.161 79.8644C704.346 112.821 728.717 141.158 756.488 163.962C844.814 235.747 920.601 206.427 1046.1 207.802C1077.5 207.962 1108.65 210.171 1139.43 214.419C1301.97 237.438 1486.52 310.93 1486.08 469.904"
          stroke="white" stroke-opacity="0.04" stroke-width="2" stroke-miterlimit="10"/>
    <path d="M-0.645334 412.641C313.439 32.0858 477.915 -55.7708 570.919 -38.8175C635.92 -27.086 654.159 36.5175 692.09 92.7628C713.086 124.629 737.603 152.426 765.053 175.487C851.708 247.596 924.897 227.372 1050.38 230.636C1079.56 231.437 1110.53 232.997 1143.51 237.094C1307.49 257.413 1494.02 314.203 1498.6 467.048"
          stroke="white" stroke-opacity="0.04" stroke-width="2" stroke-miterlimit="10"/>
    <path d="M3.95371 436.758C313.58 62.5193 478.86 -28.7369 574.322 -16.249C640.332 -7.58129 661.313 52.2998 700.075 105.644C721.887 136.407 746.557 163.71 773.674 187.1C858.692 259.507 929.258 248.267 1054.7 253.591C1083.9 254.818 1114.78 256.423 1147.65 259.897C1312.85 277.487 1501.53 317.445 1511.13 464.194"
          stroke="white" stroke-opacity="0.04" stroke-width="2" stroke-miterlimit="10"/>
    <path d="M8.58925 460.848C313.682 92.9051 479.825 -1.77008 577.709 6.48839C644.694 12.1183 668.578 68.1796 707.912 118.589C730.505 148.224 755.322 175.044 782.096 198.762C865.502 271.474 933.454 269.291 1058.89 276.438C1087.99 278.058 1118.89 279.67 1151.65 282.553C1318.48 297.352 1509.09 320.489 1523.69 461.207"
          stroke="white" stroke-opacity="0.04" stroke-width="2" stroke-miterlimit="10"/>
    <path d="M13.1894 484.961C313.758 123.282 480.771 25.2598 581.045 29.105C648.997 31.7298 675.702 83.879 715.772 131.537C739.155 159.996 764.141 186.325 790.584 210.37C872.328 283.374 937.674 290.214 1063.04 299.519C1092.14 301.631 1122.98 303.19 1155.6 305.508C1323.88 317.469 1516.48 323.871 1536.14 458.539"
          stroke="white" stroke-opacity="0.04" stroke-width="2" stroke-miterlimit="10"/>
    <path d="M17.7896 509.075C313.85 153.698 481.766 52.3035 584.507 51.7555C653.442 51.4148 683.009 99.593 723.716 144.474C747.121 170.259 771.158 196.389 799.172 222.005C879.288 295.274 942.01 311.203 1067.34 322.463C1096.4 325.021 1127.19 326.534 1159.74 328.307C1329.49 337.43 1524.1 327.103 1548.73 455.734"
          stroke="white" stroke-opacity="0.04" stroke-width="2" stroke-miterlimit="10"/>
    <path d="M22.3927 533.196C313.919 184.22 482.572 79.3729 587.888 74.4259C657.814 71.0868 690.337 115.249 731.638 157.411C756.009 182.297 780.262 207.923 807.713 233.634C886.165 307.3 946.283 332.147 1071.58 345.401C1100.6 348.438 1131.38 349.911 1163.74 351.073C1334.94 357.285 1531.57 330.303 1561.2 452.903"
          stroke="white" stroke-opacity="0.04" stroke-width="2" stroke-miterlimit="10"/>
    <path d="M26.9415 557.29C314.02 214.493 483.641 106.535 591.264 97.0827C662.155 90.8435 697.669 130.858 739.548 170.367C764.927 194.295 789.361 219.443 816.141 245.255C893.007 319.128 950.434 353.117 1075.81 368.391C1104.82 371.848 1135.53 373.268 1167.77 373.904C1340.46 377.148 1539.09 333.502 1573.71 450.071"
          stroke="white" stroke-opacity="0.04" stroke-width="2" stroke-miterlimit="10"/>
    <path d="M31.6253 581.401C314.12 244.886 484.517 133.733 594.676 119.73C666.566 110.564 705.054 146.393 747.45 183.268C773.846 206.204 798.495 230.954 824.788 256.881C899.967 331.039 954.838 374.064 1080.07 391.299C1110.37 395.055 1141.01 396.812 1171.88 396.562C1345.97 396.987 1546.66 336.804 1586.24 447.223"
          stroke="white" stroke-opacity="0.04" stroke-width="2" stroke-miterlimit="10"/>
    <path d="M36.2259 605.514C314.213 275.302 485.621 160.875 597.988 142.34C670.868 130.281 712.373 161.864 755.395 196.204C782.817 218.117 807.63 242.454 833.327 268.502C906.893 342.965 959.125 395.04 1084.26 414.216C1114.4 418.461 1145 420.199 1175.85 419.419C1351.53 416.619 1554.1 339.989 1598.82 444.274"
          stroke="white" stroke-opacity="0.04" stroke-width="2" stroke-miterlimit="10"/>
    <path d="M40.8245 629.626C314.287 305.677 486.662 188.245 601.473 164.995C675.275 150.095 719.858 177.308 763.296 209.092C791.753 229.949 816.704 253.972 841.838 280.115C913.742 354.869 963.393 415.975 1088.56 437.158C1118.55 441.849 1149.1 443.536 1179.94 442.202C1357 436.472 1561.61 343.225 1611.3 441.578"
          stroke="white" stroke-opacity="0.04" stroke-width="2" stroke-miterlimit="10"/>
    <path d="M45.4503 653.746C314.345 336.225 487.531 215.465 604.851 187.658C679.719 169.885 727.287 192.668 771.19 222.015C800.8 241.777 825.814 265.466 850.377 291.737C920.661 366.724 967.655 436.944 1092.79 460.122C1122.64 465.237 1153.16 466.873 1183.98 465.007C1362.51 456.196 1569.13 346.431 1623.81 438.753"
          stroke="white" stroke-opacity="0.04" stroke-width="2" stroke-miterlimit="10"/>
    <path d="M50.0552 677.864C314.36 366.448 488.536 242.794 608.233 210.43C684.098 189.835 734.67 208.124 779.062 235.145C809.622 253.863 834.916 277.206 858.867 303.559C927.497 378.909 971.893 458.121 1097.01 483.187C1126.71 488.728 1157.2 490.312 1188 487.914C1368 475.99 1576.71 349.904 1636.3 436.062"
          stroke="white" stroke-opacity="0.04" stroke-width="2" stroke-miterlimit="10"/>
    <path d="M54.6523 701.982C314.55 396.895 489.559 270.131 611.642 232.966C688.564 209.531 742.132 223.253 787.03 247.883C818.696 265.282 844.041 288.534 867.437 315.053C934.404 390.696 976.195 478.931 1101.27 506.057C1130.82 512.039 1161.28 513.572 1192.06 510.625C1373.54 495.482 1584.16 352.883 1648.85 433.111"
          stroke="white" stroke-opacity="0.04" stroke-width="2" stroke-miterlimit="10"/>
    <path d="M59.287 726.07C314.651 427.279 490.541 297.628 614.955 255.577C692.89 229.36 749.446 238.442 794.825 260.78C827.587 276.893 853.051 300.001 875.877 326.544C941.223 402.524 980.4 499.815 1105.43 528.896C1134.84 535.286 1165.3 536.77 1196.05 533.312C1378.96 514.655 1591.57 356.096 1661.32 430.24"
          stroke="white" stroke-opacity="0.04" stroke-width="2" stroke-miterlimit="10"/>
    <path d="M63.8607 750.178C470.954 275.427 683.276 221.344 802.843 273.738C933.368 330.928 941.069 509.913 1109.77 551.887C1307.68 601.092 1586.51 347.792 1673.89 427.429"
          stroke="white" stroke-opacity="0.04" stroke-width="2" stroke-miterlimit="10"/>
</svg>
