<svg width="1744" height="582" viewBox="0 0 1744 582" fill="none" xmlns="http://www.w3.org/2000/svg">
    <path d="M1817.5 35.0268C1674.69 -160.617 1373.62 -163.341 1206.4 -63.2452C1013.71 52.1299 1045.35 276.202 865.441 306.366C701.294 333.953 591.019 161.327 475.605 190.723C369.541 217.743 287.012 408.252 355.266 1076"
          stroke="white" stroke-opacity="0.04" stroke-width="2" stroke-miterlimit="10"/>
    <path d="M380.179 1092.95C313.46 434.541 393.682 239.846 498.297 207.327C575.904 183.348 652.02 254.142 744.521 290.426C791.297 309.588 838.9 315.957 883.056 308.962C1027.76 286.17 1040.11 144.58 1141.65 28.272C1167.46 -1.50119 1197.04 -26.7953 1229.79 -47.0898C1395.77 -150.93 1684.15 -164.395 1826.04 21.6517"
          stroke="white" stroke-opacity="0.04" stroke-width="2" stroke-miterlimit="10"/>
    <path d="M405.078 1109.81C339.915 460.772 417.768 261.974 520.763 224.104C596.477 196.275 671.794 262.059 762.431 294.861C809.13 312.407 856.317 318.17 900.395 311.711C1043.83 290.66 1061.92 159.091 1165.07 44.5443C1191.23 15.3455 1220.68 -9.89124 1252.95 -30.7623C1418.1 -137.679 1693.36 -168.037 1834.33 8.41239"
          stroke="white" stroke-opacity="0.04" stroke-width="2" stroke-miterlimit="10"/>
    <path d="M429.907 1126.62C366.306 487.097 441.894 284.184 543.316 240.792C617.233 209.153 691.599 269.92 780.476 299.226C827.027 315.172 873.782 320.357 917.761 314.454C1060.03 295.081 1083.61 173.64 1188.52 60.8112C1214.99 32.0839 1244.33 6.84461 1276.16 -14.5959C1440.23 -124.969 1702.58 -171.824 1842.64 -4.97188"
          stroke="white" stroke-opacity="0.04" stroke-width="2" stroke-miterlimit="10"/>
    <path d="M454.839 1143.61C392.732 513.348 465.986 306.456 565.917 257.494C637.977 222.129 711.53 277.798 798.556 303.519C844.989 317.867 891.386 322.468 935.319 317.08C1076.43 299.385 1105.59 188.061 1212.3 76.8817C1239.08 48.7635 1268.25 23.6104 1299.56 1.64533C1462.58 -112.201 1712.05 -175.517 1851.22 -18.2773"
          stroke="white" stroke-opacity="0.04" stroke-width="2" stroke-miterlimit="10"/>
    <path d="M479.625 1160.59C419.135 539.616 488.149 325.19 588.503 274.161C660.077 237.636 731.32 285.426 816.606 307.88C862.875 320.585 908.913 324.599 952.8 319.754C1092.75 303.737 1127.44 202.561 1235.77 93.1797C1262.82 65.5609 1291.86 40.4298 1322.7 17.9424C1484.59 -99.5201 1721.24 -179.189 1859.52 -31.5108"
          stroke="white" stroke-opacity="0.04" stroke-width="2" stroke-miterlimit="10"/>
    <path d="M504.654 1177.43C445.582 565.902 514.32 351.252 610.953 290.662C679.464 248.324 751.285 293.236 834.701 312.259C880.767 323.329 926.456 326.768 970.297 322.463C1109.09 308.124 1149.37 217.013 1259.35 109.413C1286.71 82.3356 1315.62 57.2473 1345.99 34.2464C1506.83 -86.6886 1730.52 -182.963 1867.94 -44.7735"
          stroke="white" stroke-opacity="0.04" stroke-width="2" stroke-miterlimit="10"/>
    <path d="M529.548 1194.35C471.928 592.204 538.345 373.471 633.661 307.548C700.176 261.371 771.12 300.695 852.756 316.571C898.579 325.993 943.928 328.836 987.713 325.032C1125.34 312.422 1171.25 231.449 1282.85 125.505C1308.84 100.9 1337.04 75.4064 1369.18 50.3745C1528.93 -74.157 1739.86 -186.624 1876.32 -58.1042"
          stroke="white" stroke-opacity="0.04" stroke-width="2" stroke-miterlimit="10"/>
    <path d="M554.44 1211.26C498.431 618.461 562.598 396.084 656.173 324.159C720.908 274.452 791.002 308.172 870.844 320.813C916.417 328.571 961.471 330.854 1005.25 327.623C1141.71 316.691 1193.14 245.778 1306.49 141.657C1332.87 117.404 1361.03 92.0297 1392.54 66.5449C1550.98 -61.404 1749.18 -190.324 1884.71 -71.4369"
          stroke="white" stroke-opacity="0.04" stroke-width="2" stroke-miterlimit="10"/>
    <path d="M579.34 1228.13C524.86 644.714 586.81 418.626 678.819 340.935C741.766 287.749 811.066 315.641 888.858 325.242C934.132 331.346 978.892 333.083 1022.66 330.434C1157.99 321.164 1215 260.368 1329.93 157.832C1356.56 134.011 1384.74 108.621 1415.64 82.7188C1573.09 -49.0659 1758.37 -194.239 1893.01 -84.9134"
          stroke="white" stroke-opacity="0.04" stroke-width="2" stroke-miterlimit="10"/>
    <path d="M604.23 1245.04C551.257 670.979 611.061 441.236 701.317 357.647C762.496 301.018 830.849 323.075 906.897 329.652C951.835 334.052 996.317 335.216 1040.08 333.137C1174.22 325.561 1236.8 274.846 1353.54 174.239C1380.6 150.842 1408.68 125.464 1438.96 99.1974C1595.21 -36.3118 1767.71 -197.714 1901.48 -98.0173"
          stroke="white" stroke-opacity="0.04" stroke-width="2" stroke-miterlimit="10"/>
    <path d="M629.119 1261.96C577.701 697.266 635.365 463.816 723.95 374.281C783.41 314.23 850.803 330.363 924.995 333.981C967.634 336.044 1011.12 337.859 1057.61 335.78C1190.57 329.845 1258.75 289.283 1377.15 190.405C1404.56 167.429 1432.56 142.046 1462.32 115.367C1617.37 -23.8666 1777.11 -201.514 1909.96 -111.362"
          stroke="white" stroke-opacity="0.04" stroke-width="2" stroke-miterlimit="10"/>
    <path d="M654.017 1278.88C604.217 723.662 659.527 486.58 746.53 390.999C804.251 327.49 870.725 337.579 943.075 338.325C985.772 338.772 1029.01 339.962 1075.09 338.453C1206.96 334.305 1280.61 303.731 1400.71 206.603C1428.5 184.083 1456.45 158.68 1485.52 131.632C1639.3 -11.3826 1786.36 -205.219 1918.32 -124.629"
          stroke="white" stroke-opacity="0.04" stroke-width="2" stroke-miterlimit="10"/>
    <path d="M678.85 1295.82C630.551 749.82 684.004 509.203 769.102 407.716C825.145 340.857 890.617 344.758 961.167 342.704C1003.91 341.446 1046.89 342.065 1092.48 341.226C1223.14 338.631 1302.39 318.314 1424.31 222.871C1452.46 200.72 1480.31 175.329 1508.8 147.935C1661.31 1.05247 1795.65 -208.957 1926.72 -137.928"
          stroke="white" stroke-opacity="0.04" stroke-width="2" stroke-miterlimit="10"/>
    <path d="M703.807 1312.66C656.98 776.074 708.335 532.014 791.687 424.385C846.059 354.123 910.479 351.817 979.195 347.032C1021.96 344.032 1064.78 344.12 1110.05 343.803C1239.5 342.918 1324.36 332.649 1447.85 239.036C1477.37 216.027 1505.46 190.986 1532 164.011C1683.28 13.4715 1805.08 -212.667 1935.1 -151.259"
          stroke="white" stroke-opacity="0.04" stroke-width="2" stroke-miterlimit="10"/>
    <path d="M728.698 1329.57C683.427 802.36 732.821 554.585 814.158 441.114C866.88 367.486 930.236 358.884 997.296 351.359C1040.06 346.583 1082.67 346.171 1127.52 346.475C1255.84 347.252 1346.26 347.117 1471.36 255.265C1501.16 232.817 1529.19 207.804 1555.26 180.383C1705.12 25.6709 1814.29 -216.357 1943.45 -164.717"
          stroke="white" stroke-opacity="0.04" stroke-width="2" stroke-miterlimit="10"/>
    <path d="M753.587 1346.49C709.824 828.63 757.45 577.412 836.819 457.735C887.878 380.844 950.114 365.787 1015.32 355.686C1058.07 349.097 1100.52 348.293 1144.97 349.167C1272.1 351.638 1368.11 361.567 1494.97 271.433C1525.03 249.5 1552.98 224.476 1578.56 196.586C1727.07 38.1414 1823.61 -220.055 1951.93 -177.869"
          stroke="white" stroke-opacity="0.04" stroke-width="2" stroke-miterlimit="10"/>
    <path d="M778.509 1363.39C736.357 855.059 781.802 600.254 859.396 474.451C908.888 394.146 969.872 372.662 1033.37 360.044C1076.17 351.507 1118.38 350.359 1162.45 351.839C1288.38 355.916 1389.98 376.05 1518.55 287.665C1548.86 266.226 1576.73 241.188 1601.83 212.853C1748.95 50.4638 1832.9 -223.794 1960.34 -191.169"
          stroke="white" stroke-opacity="0.04" stroke-width="2" stroke-miterlimit="10"/>
    <path d="M803.404 1380.31C762.566 881.247 806.361 623.077 882.064 491.263C929.975 407.648 989.666 379.664 1051.57 364.606C1094.29 354.34 1136.45 352.649 1180.05 354.731C1304.86 360.557 1412.01 390.736 1542.19 304.008C1572.74 283.065 1600.55 258.009 1625.17 229.231C1770.86 62.8616 1842.49 -227.356 1968.82 -204.321"
          stroke="white" stroke-opacity="0.04" stroke-width="2" stroke-miterlimit="10"/>
    <path d="M828.293 1397.23C789.12 907.473 830.941 645.883 904.553 507.839C950.917 420.846 1009.25 386.306 1069.52 368.736C1112.05 356.369 1154.17 354.554 1197.44 357.262C1321.06 364.783 1433.77 405.042 1565.71 320.136C1596.51 299.707 1624.25 274.627 1648.37 245.394C1792.56 74.9516 1851.52 -231.228 1977.14 -217.761"
          stroke="white" stroke-opacity="0.04" stroke-width="2" stroke-miterlimit="10"/>
    <path d="M853.193 1414.09C815.549 933.724 855.631 668.867 927.026 524.569C971.858 434.285 1028.76 393.133 1087.45 373.16C1129.82 358.728 1171.93 356.686 1214.72 359.907C1337.23 369.125 1455.53 419.502 1589.12 336.325C1620.15 316.371 1647.84 291.261 1671.5 261.602C1813.88 86.8787 1860.73 -234.865 1985.47 -231.063"
          stroke="white" stroke-opacity="0.04" stroke-width="2" stroke-miterlimit="10"/>
    <path d="M878.057 1431.02C819.408 666.601 956.576 435.669 1105.64 377.44C1268.36 313.871 1430.19 462.347 1612.81 352.495C1827.02 223.59 1849.15 -237.684 1993.93 -244.393"
          stroke="white" stroke-opacity="0.04" stroke-width="2" stroke-miterlimit="10"/>
</svg>
