<svg width="1251" height="325" viewBox="0 0 1251 325" fill="none" xmlns="http://www.w3.org/2000/svg">
    <path d="M1651.42 -5.27348C1574.35 -155.18 1317.64 -177.892 1151.68 -117.766C960.444 -48.459 935.954 114.133 775.233 123.32C628.582 131.749 574.024 0.564383 468.612 13.649C371.738 25.6785 257.38 156.37 162.148 639.105"
          stroke="white" stroke-opacity="0.04" stroke-width="2" stroke-miterlimit="10"/>
    <path d="M179.544 652.962C273.941 177.015 387.289 43.1681 484.19 27.1027C556.04 15.2882 604.82 71.2173 675.541 103.571C711.117 120.515 750.341 128.358 789.693 126.395C918.622 120.057 961.74 19.5461 1075.28 -56.7142C1104.19 -76.2486 1135.3 -92.3163 1167.96 -104.586C1333.71 -167.478 1583.31 -157.23 1661.8 -14.2577"
          stroke="white" stroke-opacity="0.04" stroke-width="2" stroke-miterlimit="10"/>
    <path d="M196.948 666.748C290.519 197.618 402.787 60.6703 499.533 40.6627C570.65 25.9615 619.899 78.2494 689.829 107.982C725.71 123.763 764.718 131.143 803.881 129.559C931.324 124.38 977.051 31.4395 1091.56 -43.4494C1120.64 -62.5483 1151.62 -78.584 1184 -91.3001C1349.75 -156.451 1592.01 -159.202 1671.93 -23.1632"
          stroke="white" stroke-opacity="0.04" stroke-width="2" stroke-miterlimit="10"/>
    <path d="M214.304 680.496C307.024 218.282 418.301 78.2324 514.972 54.163C585.431 36.6104 635.021 85.2408 704.249 112.35C740.372 126.975 779.144 133.912 818.093 132.718C944.158 128.661 992.24 43.3491 1107.86 -30.1887C1137.1 -48.9284 1167.98 -64.974 1200.11 -78.1279C1365.75 -145.828 1600.77 -161.279 1682.11 -32.1731"
          stroke="white" stroke-opacity="0.04" stroke-width="2" stroke-miterlimit="10"/>
    <path d="M231.71 694.376C323.576 238.897 433.773 95.8373 530.452 67.6777C600.18 47.3294 650.246 92.2549 718.718 116.669C755.107 130.143 793.708 136.636 832.499 135.808C957.186 132.872 1007.71 55.1877 1124.49 -17.045C1153.85 -35.3277 1184.57 -51.3227 1216.38 -64.8882C1381.91 -135.146 1609.71 -163.27 1692.51 -41.1072"
          stroke="white" stroke-opacity="0.04" stroke-width="2" stroke-miterlimit="10"/>
    <path d="M248.99 708.239C340.103 259.52 448.409 110.775 545.923 81.1648C615.503 59.9531 665.407 99.0781 733.144 121.034C769.77 133.32 808.199 139.368 846.826 138.926C970.135 137.111 1023.05 67.0733 1140.81 -3.76074C1170.29 -21.667 1200.88 -37.6556 1232.42 -51.6274C1397.81 -124.553 1618.41 -165.267 1702.64 -50.0109"
          stroke="white" stroke-opacity="0.04" stroke-width="2" stroke-miterlimit="10"/>
    <path d="M266.513 722.015C356.664 280.16 464.786 131.235 561.318 94.5239C629.617 68.9391 680.677 106.044 747.604 125.415C784.433 136.516 822.696 142.129 861.159 142.07C983.091 141.376 1038.47 78.9291 1157.23 9.48411C1186.84 -8.01347 1217.33 -23.9797 1248.57 -38.3516C1413.87 -113.835 1627.21 -167.331 1712.89 -58.9267"
          stroke="white" stroke-opacity="0.04" stroke-width="2" stroke-miterlimit="10"/>
    <path d="M283.897 735.844C373.131 300.805 480.208 148.798 576.842 108.177C644.317 79.7069 695.913 112.751 762.042 129.746C799.043 139.651 837.151 144.814 875.452 145.11C995.988 145.573 1053.85 90.7716 1173.61 22.6247C1201.49 6.80265 1231.46 -9.50338 1264.68 -25.2073C1429.88 -103.341 1636.03 -169.309 1723.12 -67.8924"
          stroke="white" stroke-opacity="0.04" stroke-width="2" stroke-miterlimit="10"/>
    <path d="M301.281 749.674C389.744 321.433 495.736 166.662 592.263 121.625C659.028 90.5043 711.187 119.478 776.526 134.033C813.696 142.73 851.68 147.472 889.846 148.178C1009 149.762 1069.27 102.543 1190.11 35.8208C1218.23 20.2778 1248.14 4.05457 1280.93 -12.0169C1445.79 -92.6871 1644.85 -171.311 1733.35 -76.8557"
          stroke="white" stroke-opacity="0.04" stroke-width="2" stroke-miterlimit="10"/>
    <path d="M318.687 763.46C406.297 342.044 511.248 184.463 607.762 135.19C673.798 101.456 726.619 126.203 790.905 138.441C828.2 145.933 866.06 150.263 904.082 151.385C1021.89 154.081 1084.6 114.49 1206.42 49.0108C1234.66 33.7942 1264.59 17.5614 1296.96 1.14963C1461.84 -82.3357 1653.61 -173.486 1743.55 -85.9364"
          stroke="white" stroke-opacity="0.04" stroke-width="2" stroke-miterlimit="10"/>
    <path d="M336.072 777.289C422.82 362.671 526.777 202.326 623.148 148.71C688.466 112.389 741.819 132.893 805.309 142.846C842.709 149.095 880.463 152.996 918.35 154.526C1034.75 158.353 1099.9 126.361 1222.82 62.3888C1251.33 47.5055 1281.17 31.2741 1313.1 14.5586C1477.82 -71.6755 1662.39 -175.325 1753.81 -94.7286"
          stroke="white" stroke-opacity="0.04" stroke-width="2" stroke-miterlimit="10"/>
    <path d="M353.463 791.117C439.386 383.315 542.365 220.168 638.676 162.18C703.312 123.291 757.207 139.488 819.791 147.194C855.763 151.612 892.517 155.909 932.732 157.627C1047.75 162.548 1115.35 138.212 1239.3 75.5914C1268.01 61.0333 1297.79 44.7936 1329.35 27.746C1493.91 -61.2369 1671.31 -177.396 1764.13 -103.696"
          stroke="white" stroke-opacity="0.04" stroke-width="2" stroke-miterlimit="10"/>
    <path d="M370.848 804.943C455.974 404.039 557.777 238.13 654.127 175.705C718.07 134.22 772.569 146.027 834.24 151.55C870.634 154.814 907.317 158.648 947.055 160.746C1060.72 166.87 1130.71 150.061 1255.71 88.8113C1284.64 74.6055 1314.38 58.3481 1345.44 40.9886C1509.78 -50.788 1680.06 -179.411 1774.32 -112.618"
          stroke="white" stroke-opacity="0.04" stroke-width="2" stroke-miterlimit="10"/>
    <path d="M388.177 818.791C472.466 424.585 573.495 256.017 669.575 189.233C732.855 145.233 787.92 152.542 848.697 155.936C885.519 157.983 922.115 161.39 961.276 163.933C1073.56 171.086 1145.97 162.006 1272.14 102.089C1301.29 88.1712 1330.93 71.915 1361.59 54.2696C1525.73 -40.3646 1688.86 -181.443 1784.55 -121.556"
          stroke="white" stroke-opacity="0.04" stroke-width="2" stroke-miterlimit="10"/>
    <path d="M405.638 832.559C489.02 445.198 589.047 274.02 685.047 202.719C747.682 156.169 803.276 158.96 863.113 160.273C900.355 161.075 936.937 164.091 975.702 166.985C1086.56 175.279 1161.45 173.78 1288.54 115.28C1319.07 100.844 1348.83 84.8539 1377.72 67.3733C1541.65 -29.9635 1697.77 -183.453 1794.79 -130.525"
          stroke="white" stroke-opacity="0.04" stroke-width="2" stroke-miterlimit="10"/>
    <path d="M423.024 846.388C505.581 465.842 604.786 291.87 700.407 216.247C762.406 167.173 818.538 165.385 877.59 164.622C915.243 164.152 951.756 166.795 990.026 170.106C1099.53 179.512 1176.85 185.65 1304.9 128.521C1335.54 114.506 1365.25 98.5331 1393.84 80.7C1557.51 -19.7213 1706.49 -185.456 1805.02 -139.582"
          stroke="white" stroke-opacity="0.04" stroke-width="2" stroke-miterlimit="10"/>
    <path d="M440.411 860.215C522.105 486.468 620.591 309.91 715.957 229.708C777.285 178.184 833.944 171.697 892.003 168.962C930.057 167.193 966.529 169.545 1004.32 173.236C1112.42 183.772 1192.2 197.501 1321.37 141.723C1352.11 128.095 1381.75 112.108 1410.03 93.9061C1573.41 -9.28049 1715.31 -187.462 1815.3 -148.412"
          stroke="white" stroke-opacity="0.04" stroke-width="2" stroke-miterlimit="10"/>
    <path d="M457.825 874.029C538.705 507.216 636.151 327.939 731.41 243.23C792.183 189.154 849.251 177.979 906.427 173.325C944.972 170.164 981.322 172.254 1018.65 176.352C1125.35 187.955 1207.57 209.375 1337.79 154.968C1368.63 141.71 1398.21 125.708 1426.18 107.154C1589.28 1.04749 1724.12 -189.499 1825.54 -157.356"
          stroke="white" stroke-opacity="0.04" stroke-width="2" stroke-miterlimit="10"/>
    <path d="M475.213 887.862C555.084 527.777 651.895 345.976 746.919 256.834C807.102 200.278 864.559 184.361 920.936 177.851C959.81 173.447 996.236 175.144 1033.03 179.641C1138.37 192.419 1223.02 221.413 1354.24 168.303C1385.17 155.418 1414.7 139.397 1442.36 120.494C1605.16 11.4395 1733.13 -191.384 1835.82 -166.181"
          stroke="white" stroke-opacity="0.04" stroke-width="2" stroke-miterlimit="10"/>
    <path d="M492.598 901.687C571.752 548.379 667.662 363.995 762.33 270.248C821.969 211.168 879.77 190.464 935.328 182.042C974.527 176.122 1010.95 177.728 1047.31 182.65C1151.25 196.559 1238.33 233.153 1370.63 181.468C1401.66 168.967 1431.13 152.926 1458.48 133.662C1620.93 21.5879 1741.74 -193.535 1846.02 -175.232"
          stroke="white" stroke-opacity="0.04" stroke-width="2" stroke-miterlimit="10"/>
    <path d="M510.001 915.474C588.303 568.992 683.477 382.149 777.69 283.771C836.775 222.23 894.874 196.694 949.641 186.443C989.175 179.033 1025.63 180.475 1061.47 185.732C1164.07 200.779 1253.6 245.001 1386.92 194.668C1418.03 182.524 1447.47 166.457 1474.52 146.857C1636.4 31.5932 1750.45 -195.507 1856.2 -184.183"
          stroke="white" stroke-opacity="0.04" stroke-width="2" stroke-miterlimit="10"/>
    <path d="M527.357 929.309C653.034 378.028 823.392 222.166 964.197 190.761C1117.9 156.473 1222.08 273.925 1403.44 207.877C1616.19 130.369 1741.2 -198.324 1866.49 -193.143"
          stroke="white" stroke-opacity="0.04" stroke-width="2" stroke-miterlimit="10"/>
</svg>
