<svg width="104" height="104" viewBox="0 0 104 104" fill="none" xmlns="http://www.w3.org/2000/svg">
    <path d="M95.3337 60.6666L82.598 51.4969C75.9801 46.7321 66.936 47.2245 60.8746 52.6798L43.126 68.6535C37.0647 74.1087 28.0205 74.6012 21.4027 69.8363L8.66699 60.6666M26.0003 95.3333H78.0003C87.5733 95.3333 95.3337 87.5729 95.3337 78V26C95.3337 16.427 87.5733 8.66663 78.0003 8.66663H26.0003C16.4274 8.66663 8.66699 16.427 8.66699 26V78C8.66699 87.5729 16.4274 95.3333 26.0003 95.3333ZM47.667 36.8333C47.667 42.8164 42.8167 47.6666 36.8337 47.6666C30.8506 47.6666 26.0003 42.8164 26.0003 36.8333C26.0003 30.8502 30.8506 26 36.8337 26C42.8167 26 47.667 30.8502 47.667 36.8333Z"
          stroke="#28303F" stroke-width="1.5" stroke-linecap="round"/>
</svg>
